<svg xmlns="http://www.w3.org/2000/svg" viewBox="0 0 100 100"><path fill="#FFF" d="M24.049 79.74h36.003c8.185 0 15.985-6.621 17.43-14.814l6.091-34.556h3.997c8.149 0 13.645 6.63 12.2 14.815l-7.051 40C91.274 93.363 83.474 100 75.288 100h-40c-8.185 0-13.645-6.667-12.2-14.815l.96-5.444Z"/><path fill="#FFF" fill-rule="evenodd" d="M12.437 69.63h40c8.148 0 15.978-6.637 17.422-14.815l7.052-40C78.355 6.63 72.896 0 64.711 0h-40C16.533 0 8.726 6.63 7.281 14.815l-7.052 40C-1.215 62.963 4.252 69.63 12.437 69.63m33.628-33.798c3.756-2.064 8.725-4.795 9.907-11.844C57.385 15.458 50.065 8.983 42.168 9c-7.452 0-12.771 3.195-17.508 8.892-.858 1.034-.884 2.45-.053 3.212l3.472 3.196c.847.767 2.25.589 3.176-.406 2.842-3.068 4.869-4.83 8.51-4.83 2.864 0 6.077 1.934 5.59 4.847-.37 2.223-2.292 3.334-5.4 5.001l-.28.151c-3.582 1.92-8.134 4.362-9.124 10.247l-.16.956c-.055.28-.05.571.014.85.065.278.188.538.362.76.173.222.391.4.639.522.247.121.518.183.79.18h6.744a2.7 2.7 0 0 0 1.712-.688c.481-.426.81-1.01.934-1.657l.095-.556c.266-1.582 2.101-2.59 4.384-3.845M32.837 59c3.552 0 6.955-3.034 7.58-6.769.63-3.729-1.742-6.763-5.293-6.763s-6.934 3.028-7.58 6.763C26.9 55.966 29.286 59 32.837 59"/></svg>